<svg xmlns="http://www.w3.org/2000/svg" width="28.692" height="28.692" viewBox="0 0 28.692 28.692">
  <path id="instagram_1_" data-name="instagram (1)" d="M14.346,0C10.453,0,9.963.018,8.434.086A10.571,10.571,0,0,0,4.949.753,6.994,6.994,0,0,0,2.408,2.408,6.994,6.994,0,0,0,.753,4.949,10.508,10.508,0,0,0,.086,8.428C.018,9.961,0,10.449,0,14.348S.018,18.73.086,20.26a10.568,10.568,0,0,0,.667,3.482,7.344,7.344,0,0,0,4.194,4.2,10.532,10.532,0,0,0,3.482.667c1.531.068,2.019.086,5.916.086s4.383-.018,5.914-.086a10.59,10.59,0,0,0,3.484-.667,7.344,7.344,0,0,0,4.194-4.2,10.615,10.615,0,0,0,.667-3.482c.068-1.53.086-2.017.086-5.914s-.018-4.384-.086-5.916a10.6,10.6,0,0,0-.667-3.481,6.994,6.994,0,0,0-1.655-2.541A6.994,6.994,0,0,0,23.742.753,10.554,10.554,0,0,0,20.258.086C18.727.018,18.241,0,14.342,0ZM13.06,2.586h1.288c3.83,0,4.284.013,5.8.082a7.95,7.95,0,0,1,2.665.493,4.451,4.451,0,0,1,1.65,1.074,4.432,4.432,0,0,1,1.072,1.65,7.88,7.88,0,0,1,.493,2.663c.07,1.512.084,1.965.084,5.794s-.014,4.284-.084,5.8A7.937,7.937,0,0,1,25.53,22.8a4.483,4.483,0,0,1-1.074,1.648,4.432,4.432,0,0,1-1.65,1.072,7.892,7.892,0,0,1-2.663.495c-1.512.068-1.965.084-5.8.084s-4.286-.016-5.8-.084a7.924,7.924,0,0,1-2.663-.495,4.483,4.483,0,0,1-1.65-1.072A4.483,4.483,0,0,1,3.161,22.8a7.926,7.926,0,0,1-.493-2.663c-.068-1.512-.082-1.965-.082-5.8s.014-4.282.082-5.794A7.937,7.937,0,0,1,3.163,5.88,4.451,4.451,0,0,1,4.237,4.23a4.432,4.432,0,0,1,1.65-1.072A7.924,7.924,0,0,1,8.55,2.663c1.323-.061,1.836-.079,4.51-.081ZM22,4.967a1.722,1.722,0,1,0,1.722,1.722A1.722,1.722,0,0,0,22,4.967M14.348,6.979a7.368,7.368,0,1,0,7.368,7.368,7.367,7.367,0,0,0-7.368-7.368m0,2.585a4.783,4.783,0,1,1-4.783,4.783,4.783,4.783,0,0,1,4.783-4.783" fill="#106b60"/>
</svg>
